<?xml version="1.0" encoding="utf-8"?>
<!-- Generator: Adobe Illustrator 16.0.5, SVG Export Plug-In . SVG Version: 6.00 Build 0)  -->
<!DOCTYPE svg PUBLIC "-//W3C//DTD SVG 1.1//EN" "http://www.w3.org/Graphics/SVG/1.1/DTD/svg11.dtd">
<svg version="1.1" xmlns="http://www.w3.org/2000/svg" xmlns:xlink="http://www.w3.org/1999/xlink" x="0px" y="0px"
	 width="222.31px" height="47.648px" viewBox="0 0 222.31 47.648" enable-background="new 0 0 222.31 47.648" xml:space="preserve">
<g id="Images">
</g>
<g id="Content">
</g>
<g id="Header">
	<g id="Box_shape">
	</g>
	<g id="Text_2_">
	</g>
	<g id="slider">
	</g>
	<g id="Map">
	</g>
	<g id="Contact_us_Form">
		<g id="Form_Shape">
		</g>
		<g id="Text_5_">
		</g>
		<g id="button">
		</g>
	</g>
	<g id="Diagram">
	</g>
</g>
<g id="Body">
	<g id="Background_Images">
	</g>
	<g id="White_Background">
	</g>
	<g id="Gray_Background">
	</g>
	<g id="Title_Bar_Shape">
	</g>
	<g id="Product_Screenshots">
	</g>
	<g id="Videos">
		<g id="Images_1_">
		</g>
		<g id="Logo_1_">
		</g>
		<g id="Text_6_">
		</g>
		<g id="Play_Button">
		</g>
	</g>
	<g id="Diagrams">
		<g id="Big_Apps_diagram">
		</g>
	</g>
	<g id="Text_7_">
	</g>
	<g id="Blog_Content">
	</g>
	<g id="investors_logos">
	</g>
	<g id="Rules">
	</g>
	<g id="Icons">
	</g>
	<g id="Buttons">
	</g>
	<g id="Form">
	</g>
	<g id="Blog_Thumbs">
	</g>
	<g id="Social_Media_Icons_1_">
		<g id="facebook">
		</g>
		<g id="twitter_1_">
		</g>
		<g id="google">
		</g>
	</g>
	<g id="Profile_Photos">
	</g>
</g>
<g id="Footer">
	<g id="Background">
	</g>
	<g id="Text_1_">
	</g>
	<g id="Social_Media_Icons">
		<g id="facebook_icon">
		</g>
		<g id="twitter">
		</g>
		<g id="Linked_in">
		</g>
	</g>
</g>
<g id="Call_Out_Box">
	<g id="Box_Shape">
	</g>
	<g id="Social_Media">
		<g id="google_1_">
		</g>
		<g id="twitter_2_">
		</g>
		<g id="facebook_1_">
		</g>
	</g>
	<g id="Rule">
	</g>
	<g id="Text_4_">
	</g>
</g>
<g id="Nav">
	<g id="darkbackgroud">
	</g>
	<g id="light_background">
	</g>
	<g id="Hamburger_Menu">
	</g>
	<g id="Logo">
		<g>
			<path fill="#1672B9" d="M47.722,23.786c0-12.544-9.682-22.829-21.98-23.786l12.66,23.786l1.341,2.52l-9.55,1.862l-6.309-11.963
				l-6.337,12.167l-9.567-2.063l1.341-2.521L21.982,0C9.681,0.958,0,11.242,0,23.786c0,4.265,1.118,8.267,3.08,11.732l4.894-9.199
				l15.911,9.614l15.866-9.614l4.892,9.199C46.599,32.053,47.722,28.051,47.722,23.786z"/>
			<path fill="#F6891F" d="M33.131,34.035l-9.244,8.524v-0.001l-9.292-8.522l-1.153,2.161l-3.652,6.861
				c3.824,2.798,9.019,4.485,14.093,4.584c0.16,0.004-0.159,0.006,0,0.006c5.264,0,10.101-1.704,14.043-4.59l-3.647-6.861
				L33.131,34.035z"/>
			<path fill="#1672B9" d="M63.269,7.264h4.836L80.44,28.785h-5.625l-2.504-4.71H58.65l-2.551,4.71h-4.993L63.269,7.264z
				 M69.854,19.491l-4.333-8.036l-4.38,8.036H69.854z"/>
			<path fill="#1672B9" d="M82.584,7.264h16.384c0.777,0,1.461,0.021,2.057,0.062c0.593,0.044,1.13,0.114,1.615,0.215
				c0.482,0.096,0.918,0.227,1.306,0.385c0.389,0.159,0.762,0.357,1.121,0.6c1.1,0.68,1.892,1.658,2.376,2.929
				c0.484,1.272,0.725,2.953,0.725,5.041v3.055c0,1.251-0.071,2.296-0.212,3.137c-0.142,0.84-0.383,1.623-0.718,2.344
				c-0.493,1.063-1.217,1.896-2.171,2.494c-0.359,0.242-0.732,0.441-1.121,0.602c-0.388,0.154-0.824,0.284-1.306,0.382
				c-0.485,0.101-1.022,0.169-1.615,0.216c-0.596,0.039-1.28,0.06-2.057,0.06H82.584V7.264z M99.299,24.011
				c1.438,0,2.443-0.302,3.017-0.904c0.571-0.606,0.858-1.646,0.858-3.13v-3.874c0-1.504-0.287-2.551-0.858-3.146
				c-0.574-0.592-1.579-0.889-3.017-0.889H87.577v11.943H99.299z"/>
			<path fill="#1672B9" d="M122.082,7.264h4.835l12.337,21.521h-5.624l-2.505-4.71h-13.66l-2.552,4.71h-4.995L122.082,7.264z
				 M128.666,19.491l-4.331-8.036l-4.38,8.036H128.666z"/>
			<path fill="#F6891F" d="M152.737,28.785h-5.024V12.068h-9.88V7.264h24.782v4.805h-9.879V28.785z"/>
			<path fill="#F6891F" d="M173.389,7.264h4.838l12.336,21.521h-5.623l-2.507-4.71h-13.658l-2.554,4.71h-4.993L173.389,7.264z
				 M179.975,19.491l-4.331-8.036l-4.38,8.036H179.975z"/>
			<path fill="#F6891F" d="M217.867,24.042c0,0.884-0.082,1.626-0.245,2.231c-0.164,0.602-0.43,1.093-0.803,1.465
				c-0.372,0.374-0.863,0.641-1.464,0.803c-0.605,0.163-1.35,0.243-2.231,0.243h-16.133c-0.882,0-1.62-0.08-2.212-0.243
				c-0.594-0.163-1.078-0.43-1.45-0.803c-0.371-0.372-0.642-0.863-0.804-1.465c-0.164-0.605-0.245-1.347-0.245-2.231V12.008
				c0-1.744,0.352-2.971,1.049-3.681c0.698-0.708,1.919-1.063,3.662-1.063h16.133c0.882,0,1.626,0.085,2.231,0.262
				c0.602,0.172,1.092,0.442,1.464,0.801c0.373,0.364,0.64,0.851,0.803,1.467c0.163,0.613,0.245,1.352,0.245,2.214V24.042z
				 M212.871,24.011V12.068h-15.594v11.943H212.871z"/>
			<path fill="#FFFFFF" d="M50.376,34.068h2.719c2.462,0,4.164,1.743,4.164,4.021v0.022c0,2.275-1.702,4.043-4.164,4.043h-2.719
				V34.068z M53.096,41.311c1.981,0,3.246-1.386,3.246-3.178v-0.022c0-1.791-1.265-3.201-3.246-3.201H51.26v6.401H53.096z"/>
			<path fill="#FFFFFF" d="M61.514,34.009h0.828l3.57,8.145h-0.951l-0.918-2.138h-4.264l-0.93,2.138h-0.906L61.514,34.009z
				 M63.697,39.197l-1.78-4.126l-1.79,4.126H63.697z"/>
			<path fill="#FFFFFF" d="M68.521,34.91H65.89v-0.842h6.157v0.842h-2.631v7.245h-0.895V34.91z"/>
			<path fill="#FFFFFF" d="M75.595,34.009h0.828l3.57,8.145h-0.951l-0.917-2.138h-4.265l-0.929,2.138h-0.906L75.595,34.009z
				 M77.778,39.197l-1.779-4.126l-1.792,4.126H77.778z"/>
			<path fill="#FFFFFF" d="M84.976,34.068h0.883v8.086h-0.883V34.068z"/>
			<path fill="#FFFFFF" d="M88.155,34.068h0.828l4.936,6.48v-6.48h0.863v8.086h-0.706l-5.06-6.632v6.632h-0.861V34.068z"/>
			<path fill="#FFFFFF" d="M99.069,34.91h-2.631v-0.842h6.156v0.842h-2.63v7.245h-0.895V34.91z"/>
			<path fill="#FFFFFF" d="M104.252,34.068h5.663v0.831h-4.779v2.762h4.275v0.831h-4.275v2.831h4.833v0.832h-5.718V34.068z"/>
			<path fill="#FFFFFF" d="M111.75,34.068h0.884v7.243h4.41v0.843h-5.294V34.068z"/>
			<path fill="#FFFFFF" d="M118.68,34.068h0.884v7.243h4.408v0.843h-5.293V34.068z"/>
			<path fill="#FFFFFF" d="M125.688,34.068h0.883v8.086h-0.883V34.068z"/>
			<path fill="#FFFFFF" d="M128.519,38.133v-0.022c0-2.218,1.578-4.183,3.928-4.183c1.321,0,2.138,0.394,2.921,1.074l-0.57,0.695
				c-0.605-0.545-1.276-0.926-2.385-0.926c-1.735,0-2.976,1.514-2.976,3.317v0.022c0,1.928,1.197,3.362,3.1,3.362
				c0.895,0,1.724-0.358,2.261-0.81v-2.01h-2.385v-0.819h3.235v3.222c-0.727,0.67-1.824,1.238-3.145,1.238
				C130.041,42.293,128.519,40.444,128.519,38.133z"/>
			<path fill="#FFFFFF" d="M137.641,34.068h5.663v0.831h-4.778v2.762h4.275v0.831h-4.275v2.831h4.834v0.832h-5.719V34.068z"/>
			<path fill="#FFFFFF" d="M145.142,34.068h0.827l4.937,6.48v-6.48h0.862v8.086h-0.706l-5.058-6.632v6.632h-0.861V34.068z"/>
			<path fill="#FFFFFF" d="M153.637,38.133v-0.022c0-2.287,1.656-4.183,3.962-4.183c1.421,0,2.271,0.52,3.056,1.283l-0.605,0.669
				c-0.661-0.647-1.399-1.109-2.463-1.109c-1.734,0-3.032,1.458-3.032,3.317v0.022c0,1.871,1.309,3.338,3.032,3.338
				c1.075,0,1.78-0.427,2.53-1.166l0.582,0.588c-0.816,0.855-1.711,1.422-3.134,1.422C155.303,42.293,153.637,40.457,153.637,38.133
				z"/>
			<path fill="#FFFFFF" d="M162.246,34.068h5.663v0.831h-4.78v2.762h4.275v0.831h-4.275v2.831h4.836v0.832h-5.719V34.068z"/>
			<path fill="#FFFFFF" d="M173.103,34.068h5.629v0.842h-4.745v2.889h4.242v0.832h-4.242v3.524h-0.884V34.068z"/>
			<path fill="#FFFFFF" d="M179.931,38.133v-0.022c0-2.23,1.622-4.183,4.007-4.183c2.384,0,3.985,1.93,3.985,4.161v0.022
				c0,2.229-1.623,4.183-4.007,4.183C181.532,42.293,179.931,40.363,179.931,38.133z M187.005,38.133v-0.022
				c0-1.837-1.299-3.34-3.09-3.34c-1.79,0-3.066,1.479-3.066,3.317v0.022c0,1.836,1.298,3.338,3.088,3.338
				C185.728,41.449,187.005,39.97,187.005,38.133z"/>
			<path fill="#FFFFFF" d="M189.793,34.068h3.368c0.963,0,1.735,0.298,2.227,0.809c0.381,0.392,0.605,0.957,0.605,1.592v0.024
				c0,1.341-0.895,2.126-2.127,2.357l2.407,3.305h-1.086l-2.271-3.142h-2.239v3.142h-0.884V34.068z M193.083,38.191
				c1.175,0,2.015-0.623,2.015-1.665v-0.023c0-0.993-0.739-1.593-2.004-1.593h-2.417v3.281H193.083z"/>
			<path fill="#FFFFFF" d="M204.142,34.009h0.829l3.57,8.145h-0.95l-0.919-2.138h-4.264l-0.929,2.138h-0.906L204.142,34.009z
				 M206.326,39.197l-1.78-4.126l-1.791,4.126H206.326z"/>
			<path fill="#FFFFFF" d="M210.086,34.068h0.886v7.243h4.409v0.843h-5.295V34.068z"/>
			<path fill="#FFFFFF" d="M217.016,34.068h0.884v7.243h4.41v0.843h-5.293V34.068z"/>
		</g>
	</g>
	<g id="Underline_Border">
	</g>
	<g id="Text_3_">
	</g>
	<g id="Slider_Buttons">
	</g>
	<g id="Icons_1_">
	</g>
	<g id="Hover_State">
	</g>
	<g id="rules">
	</g>
	<g id="Close_out_X">
	</g>
</g>
<g id="browser_bar">
</g>
<g id="hover_states">
</g>
<g id="Guides">
</g>
<g id="Spec" display="none">
</g>
</svg>
